<svg width="24" height="24" viewBox="0 0 24 24" fill="none" xmlns="http://www.w3.org/2000/svg">
<path d="M23.9999 12.2665C23.9999 11.2799 23.9182 10.5599 23.7414 9.81323H12.2448V14.2665H18.993C18.857 15.3732 18.1223 17.0399 16.4897 18.1598L16.4668 18.3089L20.1018 21.0685L20.3536 21.0932C22.6665 18.9998 23.9999 15.9198 23.9999 12.2665Z" fill="#4285F4"/>
<path d="M12.2449 23.9999C15.551 23.9999 18.3265 22.9332 20.3538 21.0933L16.4898 18.1599C15.4558 18.8665 14.068 19.3599 12.2449 19.3599C9.00687 19.3599 6.25858 17.2666 5.2789 14.3733L5.1353 14.3852L1.35555 17.2519L1.30612 17.3866C3.31971 21.3065 7.45578 23.9999 12.2449 23.9999Z" fill="#34A853"/>
<path d="M5.27887 14.3731C5.02037 13.6264 4.87077 12.8264 4.87077 11.9997C4.87077 11.173 5.02037 10.3731 5.26527 9.62642L5.25842 9.4674L1.43131 6.55469L1.30609 6.61306C0.476197 8.23973 0 10.0664 0 11.9997C0 13.9331 0.476197 15.7597 1.30609 17.3863L5.27887 14.3731Z" fill="#FBBC05"/>
<path d="M12.2449 4.63995C14.5442 4.63995 16.0952 5.61327 16.9796 6.42665L20.4354 3.11998C18.313 1.18667 15.551 0 12.2449 0C7.45578 0 3.31971 2.6933 1.30612 6.61325L5.2653 9.62661C6.25858 6.73329 9.00687 4.63995 12.2449 4.63995Z" fill="#EB4335"/>
</svg>
